<svg id="Layer_1" data-name="Layer 1" xmlns="http://www.w3.org/2000/svg" viewBox="0 0 825.84 753.06"><defs><style>.cls-1{fill:#7ea63f;}.cls-2{fill:#231f20;}.cls-3{fill:#fff;stroke:#fff;stroke-miterlimit:10;}</style></defs><title>EDGC_V3</title><polygon class="cls-1" points="217.05 289.25 317.33 130.38 508.87 130.38 609.15 289.25 217.05 289.25"/><path class="cls-2" d="M231.56,371l33.87-53.66,54-85.55,12.41-19.66-6.47,3.72H516.9l-6.48-3.72,33.87,53.66,54,85.55L610.7,371l6.47-11.29H273.27c-15.78,0-31.72-.65-47.49,0h-.7c-9.65,0-9.67,15,0,15H569c15.78,0,31.71.66,47.48,0,.24,0,.47,0,.7,0,5.54,0,9.55-6.42,6.48-11.28l-64.36-102-32.75-51.89c-2.58-4.08-4.49-8.43-10.08-8.72-4.93-.26-9.94,0-14.88,0H330.44c-4.8,0-8.77-.4-11.93,4.3-8.84,13.13-16.94,26.84-25.39,40.22L220.19,360.92l-1.58,2.52C213.44,371.62,226.41,379.16,231.56,371Z" transform="translate(-8.03 -77.97)"/><polygon class="cls-1" points="521.05 149.67 717.31 21.09 818.72 7.57 699.28 88.69 600.74 275.93 521.05 149.67"/><path class="cls-2" d="M532.86,234.12l66.45-43.53L704.77,121.5l24.35-16-3.78,1L814.1,94.73l12.64-1.68-3.78-14-56.83,38.6c-20.71,14.07-41.78,27.72-62.18,42.24-4,2.84-5.81,8.09-8,12.32L679.51,203.4l-46.58,88.51-19.81,37.65c-3.39,6.44-7.59,12.91-10.34,19.65-.13.31-.33.61-.49.91h13L545.32,239.34l-9.77-15.48c-5.14-8.14-18.12-.62-12.95,7.57l69.92,110.78,9.77,15.48c2.88,4.55,10.23,5.18,13,0l24.72-47,46.81-88.94,18.51-35.16,5.79-11c.28-.53,2.89-4.39,2.62-5,.07.15-4.06,3.06-2.07,2.16a21.14,21.14,0,0,0,2.75-1.87l11.38-7.73,38-25.84c21.82-14.82,43.82-29.43,65.48-44.48l1.24-.84c5.43-3.69,4.28-15-3.79-14L754,87.74l-28.35,3.78c-4.67.63-8.3,3.82-12.17,6.36l-142,93-46.24,30.29C517.25,226.44,524.75,239.43,532.86,234.12Z" transform="translate(-8.03 -77.97)"/><rect class="cls-2" x="217.05" y="289.25" width="392.09" height="134.32"/><path class="cls-2" d="M609.67,367.22V501.54l7.5-7.5H241.23c-5,0-10.45-.57-15.45,0a5.45,5.45,0,0,1-.7,0l7.5,7.5V367.22l-7.5,7.5H569c15.78,0,31.71.66,47.48,0,.24,0,.47,0,.7,0,9.66,0,9.67-15,0-15H273.27c-15.78,0-31.72-.65-47.49,0h-.7a7.61,7.61,0,0,0-7.5,7.5V501.54a7.61,7.61,0,0,0,7.5,7.5H569c15.78,0,31.71.66,47.48,0,.24,0,.47,0,.7,0a7.6,7.6,0,0,0,7.5-7.5V367.22C624.67,357.57,609.67,357.55,609.67,367.22Z" transform="translate(-8.03 -77.97)"/><polygon class="cls-1" points="609.15 423.57 469.44 605.53 442.4 745.56 389.44 745.56 362.4 605.53 217.05 423.57 609.15 423.57"/><path class="cls-2" d="M610.7,497.76l-33.29,43.35-63.85,83.16c-13.82,18-28.45,35.64-41.59,54.17-2.78,3.91-2.94,9.28-3.83,13.9l-8.42,43.6-10.07,52.17c-2,10.55-4.7,21.18-6.15,31.83-.07.54-.21,1.07-.31,1.6l7.23-5.5H397.47l7.23,5.5-14.18-73.45-9.32-48.26-2.84-14.71c-.55-2.82-.82-4.61-2.72-7-12.2-15.51-24.63-30.84-36.95-46.26l-66.5-83.25L245.1,514.67c-4.62-5.79-8.95-12.18-14-17.58-.24-.26-.45-.57-.68-.85l-5.3,12.8H569c15.78,0,31.71.66,47.48,0,.24,0,.47,0,.7,0,9.66,0,9.67-15,0-15H273.27c-15.78,0-31.72-.65-47.49,0h-.7c-7,0-9.17,8-5.3,12.81l34,42.62,66,82.68L363.68,687c.3.37.85,1.4,1.29,1.61.27.12-1.35-4.42-1.67-2.55-.44,2.66,1.38,7.1,1.88,9.71l8.43,43.67c5.43,28.11,10,56.56,16.32,84.48.12.53.2,1.07.31,1.6.61,3.2,4.12,5.51,7.23,5.51h52.95c3.08,0,6.62-2.31,7.23-5.51l13.9-72,9.34-48.34,2.9-15a29.27,29.27,0,0,0,.73-3.8c.13-2,.08.82-.49.79.55,0,3-3.87,3.29-4.3l7.48-9.73,24.55-32,64-83.31,26.19-34.11c4.47-5.83,9.4-11.51,13.52-17.61.19-.28.41-.54.62-.81,2.49-3.24.47-8.37-2.69-10.26C617.12,492.77,613.15,494.56,610.7,497.76Z" transform="translate(-8.03 -77.97)"/><polygon class="cls-1" points="304.79 149.67 108.53 21.09 7.12 7.57 126.55 88.69 225.09 275.93 304.79 149.67"/><path class="cls-2" d="M316.6,221.17,199.34,144.35l-66.56-43.61c-4.06-2.66-8.06-5.76-12.33-8.07-2.18-1.19-5.24-1.28-7.73-1.62L97.25,89,15.15,78.05C7.09,77,5.93,88.33,11.36,92l56,38,40.76,27.68c7.26,4.93,14.43,10.81,22.14,15,2.12,1.16-2.26-3.18-2.07-2.16a7.32,7.32,0,0,0,.87,1.66l4.29,8.15,16.47,31.29,46.62,88.59c9.87,18.76,19,38.16,29.72,56.47.18.3.32.61.48.91,2.73,5.18,10.08,4.55,13,0l69.92-110.78,9.77-15.48c5.17-8.18-7.81-15.72-13-7.57L236.42,334.64l-9.78,15.48h13l-25.14-47.76-46.82-89-18.49-35.14c-2.63-5-4.91-10.61-8.06-15.31-1.42-2.11-3.65-3.39-5.72-4.79L124,150.42,86.47,124.94,45,96.78C36.79,91.2,28.74,84.94,20.17,79.91c-.43-.25-.83-.56-1.24-.84l-3.78,14,88.76,11.83,12.64,1.69-3.78-1,66.44,43.53,105.47,69.1,24.35,16C317.13,239.43,324.65,226.45,316.6,221.17Z" transform="translate(-8.03 -77.97)"/><path class="cls-2" d="M555.61,267.72l88.8-62.26,12.6-8.84-11-8.47L597.25,313.77l-7,17.9L604,329.88l-40-63.37-5.71-9.05c-5.14-8.14-18.13-.62-12.95,7.57l40,63.38,5.71,9c3.66,5.81,11.4,4.13,13.7-1.79L653.52,210l6.94-17.9c2.32-6-5.84-12.1-11-8.47l-88.79,62.26L548,254.77C540.19,260.27,547.68,273.28,555.61,267.72Z" transform="translate(-8.03 -77.97)"/><path class="cls-2" d="M294,254.77l-88.8-62.26-12.61-8.84c-5.14-3.61-13.35,2.46-11,8.47L230.3,317.76l6.95,17.9c2.3,5.93,10.06,7.58,13.71,1.79l40-63.37,5.71-9.05c5.16-8.18-7.81-15.72-13-7.57l-40,63.38-5.71,9,13.71,1.79L203,206.05,196,188.15l-11,8.47,88.8,62.26,12.6,8.84C294.33,273.28,301.83,260.28,294,254.77Z" transform="translate(-8.03 -77.97)"/><path class="cls-2" d="M714.54,168.66l14.65-34.93c1.58-3.76-1.7-8.21-5.24-9.22-4.31-1.24-7.66,1.52-9.22,5.24l-14.65,34.92c-1.58,3.77,1.7,8.22,5.24,9.23,4.31,1.23,7.66-1.52,9.22-5.24Z" transform="translate(-8.03 -77.97)"/><path class="cls-2" d="M141.81,164.67l-13.15-34.92c-3.37-9-17.88-5.08-14.47,4l13.16,34.93c3.37,9,17.87,5.07,14.46-4Z" transform="translate(-8.03 -77.97)"/><path class="cls-3" d="M232.94,389.78H308.1v19.38H261.05v14.42H304.7V442.1H261.05V460h48.42v20.55H232.94Z" transform="translate(-8.03 -77.97)"/><path class="cls-3" d="M325,389.78h41.66q12.33,0,19.91,3.34a32.34,32.34,0,0,1,12.54,9.6,39.84,39.84,0,0,1,7.18,14.55,67.32,67.32,0,0,1,2.23,17.58q0,14.55-3.31,22.57a37.46,37.46,0,0,1-9.2,13.44,30,30,0,0,1-12.63,7.21,65.06,65.06,0,0,1-16.72,2.47H325Zm28,20.55v49.6h6.88q8.79,0,12.5-1.95a13.19,13.19,0,0,0,5.82-6.81q2.12-4.86,2.11-15.76,0-14.43-4.71-19.75T360,410.33Z" transform="translate(-8.03 -77.97)"/><path class="cls-3" d="M468.84,447.67V428.78h43.34v38.7q-12.45,8.49-22,11.55a74.89,74.89,0,0,1-22.7,3.06q-16.16,0-26.34-5.51a37.7,37.7,0,0,1-15.79-16.41q-5.61-10.89-5.6-25,0-14.87,6.13-25.85a39.6,39.6,0,0,1,17.95-16.68q9.23-4.41,24.83-4.4,15,0,22.51,2.72a29.33,29.33,0,0,1,12.38,8.45,37.58,37.58,0,0,1,7.4,14.52l-27.06,4.83a14.66,14.66,0,0,0-5.66-7.86A17.69,17.69,0,0,0,468,408.17q-9.22,0-14.7,6.4t-5.48,20.28q0,14.75,5.54,21t15.45,6.32a29.57,29.57,0,0,0,9-1.36,48.7,48.7,0,0,0,9.79-4.65v-8.54Z" transform="translate(-8.03 -77.97)"/><path class="cls-3" d="M589.26,443.4l24.58,7.43A45.28,45.28,0,0,1,606,468.1a33.87,33.87,0,0,1-13.22,10.46q-7.89,3.54-20.09,3.53-14.81,0-24.18-4.3t-16.19-15.13q-6.81-10.82-6.81-27.72,0-22.51,12-34.61t33.9-12.1q17.15,0,27,6.93T613,416.46L588.21,422a21.5,21.5,0,0,0-2.73-6.07,16.14,16.14,0,0,0-5.75-4.95,16.62,16.62,0,0,0-7.62-1.73q-9.54,0-14.61,7.67-3.84,5.69-3.84,17.87,0,15.09,4.58,20.68t12.88,5.6q8.05,0,12.17-4.52T589.26,443.4Z" transform="translate(-8.03 -77.97)"/><path class="cls-2" d="M464.6,533.11,439,644.65l-3.66,15.9,7.24-5.51H404.23l7.23,5.51L382.91,549.19l-4.13-16.08c-2.39-9.35-16.86-5.39-14.46,4l28.55,111.36L397,664.53a7.61,7.61,0,0,0,7.23,5.51h38.31a7.62,7.62,0,0,0,7.23-5.51L475.41,553l3.65-15.9c2.16-9.39-12.3-13.4-14.46-4Z" transform="translate(-8.03 -77.97)"/><path class="cls-2" d="M459,580.79l21.41,13.74a7.61,7.61,0,0,0,9.09-1.17l34.92-33.8a7.47,7.47,0,0,0,1.93-7.3l-10.14-33.8c-2.76-9.22-17.25-5.29-14.46,4l10.14,33.8,1.93-7.3-34.93,33.8,9.09-1.17L466.6,567.84c-8.15-5.23-15.68,7.75-7.57,12.95Z" transform="translate(-8.03 -77.97)"/><path class="cls-2" d="M374.06,567.84l-21.4,13.74,9.09,1.17L326.82,549l1.93,7.3,10.14-33.8c2.78-9.27-11.7-13.23-14.47-4l-10.14,33.8a7.49,7.49,0,0,0,1.93,7.3l34.93,33.8a7.62,7.62,0,0,0,9.09,1.17l21.41-13.74c8.09-5.2.58-18.19-7.58-12.95Z" transform="translate(-8.03 -77.97)"/></svg>