# Blender v2.78 (sub 0) OBJ File: 'Items.blend'
# www.blender.org
mtllib SausageCooked.mtl
o SausageCooked_Cylinder.007
v -0.596717 -0.000000 0.183931
v 0.602805 -0.000002 0.168448
v -0.214036 0.153148 0.000000
v 0.214036 0.153148 -0.000000
v 0.214036 0.108292 -0.108292
v -0.214036 0.108292 -0.108292
v 0.214036 -0.000000 -0.153148
v -0.214036 -0.000000 -0.153148
v 0.214036 -0.108292 -0.108292
v -0.214036 -0.108292 -0.108292
v 0.214036 -0.153148 0.000000
v -0.214036 -0.153148 0.000000
v 0.214036 -0.108292 0.108292
v -0.214036 -0.108292 0.108292
v 0.214036 -0.000000 0.153148
v -0.214036 0.000000 0.153148
v 0.214036 0.108292 0.108292
v -0.214036 0.108292 0.108292
v -0.566676 0.080838 0.167032
v -0.516651 0.138620 0.148398
v 0.576520 0.079464 0.153426
v 0.529337 0.136263 0.130461
v -0.586629 0.057161 0.113466
v -0.550866 0.098019 0.056545
v 0.601110 0.056190 0.102902
v 0.571502 0.096352 0.043825
v -0.594894 0.000000 0.091279
v -0.565038 0.000000 0.018498
v 0.611295 -0.000000 0.081975
v 0.588968 -0.000000 0.007939
v -0.586629 -0.057161 0.113466
v -0.550866 -0.098019 0.056545
v 0.601110 -0.056190 0.102902
v 0.571502 -0.096353 0.043825
v -0.566676 -0.080838 0.167032
v -0.516651 -0.138620 0.148398
v 0.576520 -0.079464 0.153426
v 0.529337 -0.136263 0.130461
v -0.546722 -0.057161 0.220598
v -0.482435 -0.098019 0.240251
v 0.551931 -0.056190 0.203949
v 0.487171 -0.096353 0.217098
v -0.538458 0.000000 0.242786
v -0.468263 0.000000 0.278298
v 0.541745 -0.000000 0.224877
v 0.469705 -0.000000 0.252984
v -0.546723 0.057161 0.220598
v -0.482435 0.098019 0.240251
v 0.551931 0.056190 0.203949
v 0.487171 0.096352 0.217098
vt 0.3393 0.8454
vt 0.1408 0.8692
vt 0.1364 0.8102
vt 0.3474 0.7565
vt 0.9386 0.6994
vt 0.6685 0.5852
vt 0.6587 0.6709
vt 0.8880 0.7619
vt 0.6611 0.7583
vt 0.8675 0.8210
vt 0.6699 0.8473
vt 0.8678 0.8806
vt 0.6735 0.9401
vt 0.8918 0.9532
vt 0.8885 0.9523
vt 0.6724 0.9377
vt 0.6698 0.8446
vt 0.8667 0.8805
vt 0.0925 0.8629
vt 0.0931 0.8232
vt 0.0300 0.8398
vt 0.6620 0.7578
vt 0.8664 0.8205
vt 0.6594 0.6718
vt 0.8864 0.7621
vt 0.3346 0.9380
vt 0.1205 0.9418
vt 0.3393 0.8463
vt 0.1420 0.8726
vt 0.1235 0.9443
vt 0.3356 0.9392
vt 0.3465 0.7596
vt 0.1376 0.8134
vt 0.3485 0.6735
vt 0.1139 0.7582
vt 0.3396 0.5858
vt 0.0592 0.6991
vt 0.3492 0.6689
vt 0.1122 0.7544
vt 0.0599 0.6951
vt 0.3399 0.5838
vt 0.6688 0.5837
vt 0.9389 0.6997
vt 0.9285 0.7898
vt 0.9123 0.8273
vt 0.0923 0.8221
vt 0.0725 0.7869
vt 0.9679 0.7619
vt 0.0289 0.7606
vt 0.9310 0.7925
vt 0.9732 0.7632
vt 0.0341 0.7626
vt 0.0748 0.7877
vt 0.9134 0.8299
vt 0.9153 0.8701
vt 0.9402 0.9095
vt 0.0679 0.9051
vt 0.9158 0.8676
vt 0.9432 0.9092
vt 0.0707 0.9016
vt 0.0930 0.8615
vt 0.9778 0.8425
vt 0.0298 0.8410
vt 0.9782 0.8475
vn -0.1081 0.9200 0.3767
vn -0.4137 -0.3638 -0.8346
vn -0.2086 -0.9118 -0.3537
vn 0.1409 -0.9190 0.3683
vn 0.4052 -0.3647 0.8383
vn 0.4052 0.3647 0.8383
vn 0.7659 -0.3547 0.5362
vn 0.1409 0.9190 0.3683
vn -0.2086 0.9118 -0.3537
vn 0.0000 0.9239 0.3827
vn -0.3336 0.3705 0.8668
vn 0.0000 0.3827 0.9239
vn -0.3336 -0.3705 0.8668
vn 0.0000 -0.3827 0.9239
vn -0.1081 -0.9200 0.3767
vn -0.0000 -0.9239 0.3827
vn 0.1891 -0.9148 -0.3569
vn -0.0000 -0.9239 -0.3827
vn 0.3707 -0.3681 -0.8527
vn -0.0000 -0.3827 -0.9239
vn 0.3707 0.3681 -0.8527
vn -0.0000 0.3827 -0.9239
vn 0.1891 0.9148 -0.3569
vn 0.0000 0.9239 -0.3827
vn -0.4137 0.3638 -0.8346
vn -0.7571 0.6533 -0.0067
vn 0.7542 0.6533 0.0661
vn -0.8907 0.2706 -0.3654
vn 0.9217 0.2706 -0.2780
vn -0.8907 -0.2706 -0.3654
vn 0.9217 -0.2706 -0.2780
vn -0.7571 -0.6533 -0.0067
vn 0.7542 -0.6533 0.0661
vn -0.5682 -0.6533 0.5004
vn 0.5174 -0.6533 0.5528
vn -0.4346 -0.2706 0.8590
vn 0.3499 -0.2706 0.8968
vn -0.4346 0.2706 0.8590
vn 0.3499 0.2706 0.8968
vn -0.5682 0.6533 0.5004
vn 0.5174 0.6533 0.5528
vn -0.7006 0.1679 0.6935
vn 0.8959 0.3484 0.2755
vn 0.7659 0.3547 0.5362
vn 0.8959 -0.3484 0.2755
vn 0.6712 0.1488 0.7262
vn 0.9851 -0.1425 0.0967
vn 0.6711 -0.1488 0.7262
vn 0.9851 0.1425 0.0967
vn -0.9884 -0.1505 -0.0194
vn -0.9107 0.3747 0.1736
vn -0.7918 0.3921 0.4683
vn -0.7006 -0.1679 0.6935
vn -0.9884 0.1505 -0.0194
vn -0.7918 -0.3921 0.4683
vn -0.9107 -0.3747 0.1736
usemtl None
s off
f 17/1/1 50/2/1 22/3/1 4/4/1
f 28/5/2 8/6/2 10/7/2 32/8/2
f 32/8/3 10/7/3 12/9/3 36/10/3
f 36/10/4 12/9/4 14/11/4 40/12/4
f 40/12/5 14/11/5 16/13/5 44/14/5
f 44/15/6 16/16/6 18/17/6 48/18/6
f 41/19/7 37/20/7 2/21/7
f 48/18/8 18/17/8 3/22/8 20/23/8
f 20/23/9 3/22/9 6/24/9 24/25/9
f 18/17/10 17/1/10 4/4/10 3/22/10
f 15/26/11 46/27/11 50/2/11 17/1/11
f 16/16/12 15/26/12 17/1/12 18/17/12
f 13/28/13 42/29/13 46/30/13 15/31/13
f 14/11/14 13/28/14 15/31/14 16/13/14
f 11/32/15 38/33/15 42/29/15 13/28/15
f 12/9/16 11/32/16 13/28/16 14/11/16
f 9/34/17 34/35/17 38/33/17 11/32/17
f 10/7/18 9/34/18 11/32/18 12/9/18
f 7/36/19 30/37/19 34/35/19 9/34/19
f 8/6/20 7/36/20 9/34/20 10/7/20
f 5/38/21 26/39/21 30/40/21 7/41/21
f 6/24/22 5/38/22 7/41/22 8/42/22
f 4/4/23 22/3/23 26/39/23 5/38/23
f 3/22/24 4/4/24 5/38/24 6/24/24
f 24/25/25 6/24/25 8/42/25 28/43/25
f 20/23/26 24/25/26 23/44/26 19/45/26
f 26/39/27 22/3/27 21/46/27 25/47/27
f 24/25/28 28/43/28 27/48/28 23/44/28
f 30/40/29 26/39/29 25/47/29 29/49/29
f 28/5/30 32/8/30 31/50/30 27/51/30
f 34/35/31 30/37/31 29/52/31 33/53/31
f 32/8/32 36/10/32 35/54/32 31/50/32
f 38/33/33 34/35/33 33/53/33 37/20/33
f 36/10/34 40/12/34 39/55/34 35/54/34
f 42/29/35 38/33/35 37/20/35 41/19/35
f 40/12/36 44/14/36 43/56/36 39/55/36
f 46/30/37 42/29/37 41/19/37 45/57/37
f 44/15/38 48/18/38 47/58/38 43/59/38
f 50/2/39 46/27/39 45/60/39 49/61/39
f 48/18/40 20/23/40 19/45/40 47/58/40
f 22/3/41 50/2/41 49/61/41 21/46/41
f 43/59/42 47/58/42 1/62/42
f 25/47/43 21/46/43 2/63/43
f 21/46/44 49/61/44 2/63/44
f 37/20/45 33/53/45 2/21/45
f 49/61/46 45/60/46 2/63/46
f 33/53/47 29/52/47 2/21/47
f 45/57/48 41/19/48 2/21/48
f 29/49/49 25/47/49 2/63/49
f 27/51/50 31/50/50 1/64/50
f 19/45/51 23/44/51 1/62/51
f 47/58/52 19/45/52 1/62/52
f 39/55/53 43/56/53 1/64/53
f 23/44/54 27/48/54 1/62/54
f 35/54/55 39/55/55 1/64/55
f 31/50/56 35/54/56 1/64/56
