# Blender v2.78 (sub 0) OBJ File: 'nakkivaunu.blend'
# www.blender.org
mtllib ylaluukku.mtl
o Luukku_Cube.001
v 0.721051 0.651195 -1.000000
v 0.681866 0.708664 -0.960817
v -0.681869 0.708666 -0.960817
v -0.721052 0.651195 -1.000000
v 0.681867 0.708663 -0.029563
v -0.721051 0.651194 0.009621
v 0.721051 0.651194 0.009620
v -0.681868 0.708665 -0.029562
v 0.721049 0.708664 -1.000000
v 0.721050 0.708663 0.009620
v -0.721052 0.708666 -1.000000
v -0.721051 0.708665 0.009621
v 0.681866 0.694553 -0.960817
v 0.681867 0.694552 -0.029563
v -0.681869 0.694555 -0.960817
v -0.681868 0.694554 -0.029562
vn 0.0000 -0.0000 1.0000
vn 1.0000 0.0000 -0.0000
vn -1.0000 -0.0000 0.0000
vn -0.0000 -1.0000 -0.0000
vn 0.0000 1.0000 0.0000
vn -0.0000 0.0000 -1.0000
usemtl Vaunumat
s off
f 10//1 12//1 6//1 7//1
f 10//2 7//2 1//2 9//2
f 6//3 12//3 11//3 4//3
f 7//4 6//4 4//4 1//4
f 16//5 14//5 13//5 15//5
f 2//1 3//1 15//1 13//1
usemtl Vaunumat2
f 9//6 1//6 4//6 11//6
f 3//2 8//2 16//2 15//2
f 2//5 5//5 10//5 9//5
f 3//5 2//5 9//5 11//5
f 5//5 8//5 12//5 10//5
f 8//5 3//5 11//5 12//5
f 8//6 5//6 14//6 16//6
f 5//3 2//3 13//3 14//3
